<?xml version="1.0" encoding="UTF-8" standalone="no"?>
<!DOCTYPE svg PUBLIC "-//W3C//DTD SVG 1.1//EN" "http://www.w3.org/Graphics/SVG/1.1/DTD/svg11.dtd">

<svg version="1.0" xmlns="http://www.w3.org/2000/svg" width="67.2" height="64.66667" viewBox="0 0 504 485"><path d="M205.5 79.1c-54.8 2.8-109 27.1-147.5 66.1C14.5 189.3-5.9 251 3.5 310c6.8 42 26.8 79.9 58.1 110 36.4 35 76.6 54.4 127.4 61.5 15.3 2.1 46.5 2.1 62.5 0 98.6-13.1 175.1-85.1 187.1-175.9 1.9-14.7 1.4-42.4-1-56.1C420.3 153.3 333.3 82.3 228 78.7c-5.2-.1-15.3 0-22.5.4zm54.1 3.9c39 6.6 74.3 22.1 102.9 45.1 25.6 20.5 43.5 42.6 57.1 70.4 48.8 99.2 2.2 216.6-104.6 263.9-55.3 24.6-122.6 25.9-180.2 3.5-33.1-12.9-69.4-39.5-90.2-66.3-30.5-39.1-44.3-83-41.5-131.5 3-50.3 28.8-100.4 69.3-134.5 25.6-21.6 53.8-36.5 85.1-45 6.6-1.8 13.8-3.6 16-4l4-.7-5.2 3.1c-22.8 13.5-30.3 39.6-20.7 72.7 3.4 12 6 16.9 10.2 19.8 4.2 2.9 10.3 3.3 12.2 1 1.1-1.3.9-2.9-1.4-9.3-9.4-27.2-6.8-48.3 7.6-61.8 25.1-23.4 80-12.4 127.9 25.7 11.6 9.2 29.9 28.4 38.1 40 22.2 31.1 29.4 64.1 18.7 85.1l-2.1 4.2-1.3-2.5c-.6-1.3-4-10.2-7.5-19.8-5.2-14-7.1-18-9.8-20.7-5.6-5.5-14.2-5.9-14.2-.7 0 1.4 2.5 9.4 5.6 17.7 17.2 46.7 18.3 48.9 24.4 52.1 1.5.8 17.4 4.2 35.4 7.6 35.3 6.6 35.6 6.6 35.6.8 0-3.4-5.6-10.1-9.8-11.8-1.5-.6-10.9-2.6-21-4.5s-18.5-3.6-18.8-3.9c-.3-.2.4-2 1.5-3.8 6-10.4 8.1-25 5.7-40.4-9.7-63.6-83-135.3-156-152.6l-8.1-1.9 11.6.5c6.4.3 17 1.4 23.5 2.5z"/><path d="M104 120.7c0 .4.7 2.8 1.6 5.3 2.3 6.5 1.3 15.8-2.7 24-2.6 5.3-5.9 9.2-17.4 20.5-15.3 15-18.3 19.5-20.5 30-2.2 10.7.9 24.5 7.8 34.4 4.2 6 11.2 12.2 9.8 8.6-.4-1.1-1.4-5.2-2.3-9-1.2-5.6-1.3-8.3-.4-13.8 1.2-7.1 5.2-16.1 9.5-21.2l2.5-3 .1 9.2c0 10.9 1.9 16.8 7.8 24.7 4.7 6.2 8.6 13.6 10.1 19.4 1.1 4 1.3 4.2 5 4.2 2.2 0 6.7-.9 10-1.9 12.3-3.8 22.2-12.5 28.8-25.2 3.7-7.2 3.7-7.6 3.8-18.4 0-9.5-.3-11.5-2.2-15-2-3.6-2.2-3.7-2.3-1.5-.1 4.1-3.6 10.5-7 13-4.7 3.3-10.5 3.6-16 .8-9.4-4.8-10.8-13.5-4.1-24.7 5.3-8.7 6.9-16.6 5.4-25.7-1.7-9.7-6.3-18.7-13.1-25.2-5.6-5.5-14.2-11.2-14.2-9.5zM181.2 230.4c-2.4 4.1-6.3 5.2-12.1 3.5-3.8-1.1-4.3-1.1-6.7 1.2-2.2 2-2.5 3-2 6.2.8 5-1.4 9.2-5.8 10.8-5.7 2.1-6.3 8.3-1.2 11.6 4 2.6 5.3 6.7 3.6 11.8-1 3.1-.9 3.8 1 6.6 2 2.8 2.6 3 6.2 2.4 5.6-1 9.3.9 11.2 5.6 1.5 3.7 1.8 3.9 5.9 3.9 3.7 0 4.5-.4 6-2.9 2.5-4.3 7.4-5.7 12.1-3.4l3.7 1.7 2.9-3c2.6-2.6 2.8-3.3 2.1-6.6-1.1-4.9 1.4-9.1 6.3-10.8 3.4-1.1 3.6-1.4 3.6-5.3 0-3.6-.4-4.4-3-5.9-4.3-2.4-5.6-6.3-3.7-11.3 1.3-3.8 1.3-4.2-1-7.2-2.2-2.9-2.6-3-5.9-2.1-5 1.3-9.9-1.1-11.5-5.6-.9-2.6-2-3.6-4.2-4-4.8-1-5.4-.8-7.5 2.8zm10.9 22.2c7.5 7.2 2.4 19.4-8.1 19.4-11.7 0-15.8-14.8-5.8-21 4.4-2.8 10-2.1 13.9 1.6zM235.3 271c-2.3 4-7.1 5.4-11.9 3.4-3.3-1.4-3.7-1.3-6.5.7-2.9 2-3 2.5-2.4 6.5.8 5.7-1.3 10-5.6 10.9-3.2.7-3.4 1-4.3 6.2-.5 2.8-.1 3.4 2.8 5.3 4.6 2.8 6 6.9 4 11.7-1.5 3.4-1.4 3.8.4 6.2 1.6 2.2 2.8 2.6 6.8 2.6 6.3 0 9.8 1.9 11.3 6 1.1 3.2 3.2 4.5 7.6 4.5 1.3 0 2.7-1.2 3.9-3.4 2.2-4.1 6.8-5.4 12.1-3.5 3.1 1.2 3.8 1.1 6.2-.8 2.4-1.8 2.8-2.7 2.5-6.4-.4-6.2 1.3-9.4 5.7-11.1 3.3-1.3 3.9-2 4.3-5.3.4-3.3.1-4-2.9-5.9-4.4-2.8-5.8-7.5-3.6-12.1 1.5-3.2 1.5-3.5-.8-6.4-2.1-2.7-2.8-3-6.1-2.5-5.8.9-10.1-1.2-12-5.7-1.5-3.6-2-3.9-5.7-3.9-3.4 0-4.3.5-5.8 3zm9.5 20.6c7.2 5 6.6 16.1-1.2 19.8-4.2 2-5.7 2-10.1.2-4-1.7-6.5-6-6.5-11.2 0-2.8.8-4.4 3.4-7 2.8-2.8 4.1-3.4 7.8-3.4 2.4 0 5.4.7 6.6 1.6zM86.8 282.2c-4.7 6.8-11.6 16.7-15.3 22.2l-6.8 9.8 6.2-.7 6.3-.7-2.8 4.3c-1.5 2.4-5.7 8.9-9.4 14.4-3.6 5.5-7 10.5-7.3 11.2-.5.7 2.4.3 7.7-1.1 4.7-1.3 8.2-1.8 7.9-1.2-.4.6-6.7 10.3-14 21.5-7.4 11.2-13.3 20.5-13.1 20.6.2.3 24.6-4 40.1-6.9l2.7-.6v33h13v-16.6c0-15.3.1-16.5 1.8-16 .9.3 9.6 1.9 19.2 3.6 9.6 1.7 18.3 3.3 19.3 3.6.9.3 1.7.2 1.7-.3s-6.1-10.1-13.5-21.3c-7.3-11.3-13-20.6-12.5-20.8.5-.2 4.1.6 8 1.7 5.7 1.6 7.1 1.7 6.6.6-.3-.8-4.6-7.5-9.6-14.9-4.9-7.5-9-13.8-9-14.2 0-.3 2.5-.3 5.5.1 3 .3 5.5.4 5.5 0s-23.5-34.9-29.5-43.3c-.1-.1-4 5.3-8.7 12zM295.4 278c-1.1.4-2.5 1.4-3.1 2.1-.6.8-15.2 25.2-32.3 54.4-20.3 34.4-31.3 54-31.3 55.8 0 1.5.7 3.6 1.7 4.5 1.5 1.6 6.8 1.7 66.5 1.7 62.4 0 65-.1 67-1.9 1.2-1.1 2.1-2.9 2.1-4.2 0-1.9-57-100.8-63.1-109.5-2.1-3-4.6-3.9-7.5-2.9zm11.1 34.7c-4.3 14.9-6.5 22.8-6.5 23.5 0 .4 2.9.8 6.4 1l6.3.3-12 20.7c-6.7 11.4-12.2 20.6-12.4 20.4-.3-.3 5.5-25 7.3-30.9.5-1.5-.2-1.7-6.1-1.7h-6.7l.6-2.8c.6-3 5.6-33.7 5.6-34.6 0-.4 4.3-.6 9.4-.6h9.5l-1.4 4.7z"/></svg>